<?xml version="1.0" encoding="utf-8"?>
<!-- Generator: Adobe Illustrator 23.0.0, SVG Export Plug-In . SVG Version: 6.00 Build 0)  -->
<svg version="1.1" id="Layer_1" xmlns="http://www.w3.org/2000/svg" xmlns:xlink="http://www.w3.org/1999/xlink" x="0px" y="0px"
	 viewBox="0 0 340.1 345" style="enable-background:new 0 0 340.1 345;" xml:space="preserve">
<style type="text/css">
	.st0{fill:#F8941E;}
	.st1{fill:#FFFFFF;}
	.st2{fill:#1D4484;}
	.st3{fill:#1D4F91;}
</style>
<path class="st1" d="M57,174.9c0,0,68.4-118.5,115.4-117.4c47,1,115.4,121.5,115.4,121.5L169.3,296.5
	C169.3,296.5,62.1,208.6,57,174.9z"/>
<path class="st0" d="M170.1,267.9c-0.6-0.3-1.2-0.5-1.7-0.9c-11.4-9.1-23.3-17.6-34.2-27.4c-11.4-10.3-22.3-21.3-32.6-32.6
	c-6.6-7.3-12-15.7-17.9-23.6c-1.4-1.9-2.7-4-4.1-5.9c-1.2-1.7-1.2-3.3-0.1-5c5.8-8.5,11.5-17,17.3-25.5
	c8.1-11.9,17.5-22.6,27.9-32.4c7.3-6.9,15.2-13.3,23.1-19.5c6.5-5.1,13.5-9.6,20.3-14.4c1.8-1.3,3.3-1.3,5.1,0.1
	c6.5,5.2,13.3,10,19.6,15.4c7.8,6.6,15.4,13.4,22.7,20.5c11.4,11,22,22.6,31.4,35.4c4.2,5.7,8.1,11.6,12.2,17.4
	c2.7,3.9,2.7,4.5,0.1,8.5c-8.1,12.4-16.8,24.4-26.9,35.2c-9.2,9.8-18.7,19.4-28.8,28.4c-9.9,8.8-20.6,16.7-31,25
	C171.7,267,170.9,267.4,170.1,267.9z"/>
<path class="st2" d="M332.6,116.7c-5.7,18-13.3,35.1-22.6,51.5c-0.4,0.7-0.7,1.4-1.2,2.1c-2,2.6-1.6,4.8,0,7.6
	c9.4,15.8,17.4,32.2,23,49.7c6.5,20.3,9.8,41.1,5.5,62.1c-5.3,25.9-20.6,43.5-46.3,51.3c-13.8,4.2-27.8,4.8-42.1,2.5
	c-13-2.1-25.6-5.4-37.8-10.4c-12.7-5.2-24.8-11.7-36.2-19.3c-4.8-3.2-4.6-3.1-9.5-0.2c-18.2,11.1-37.2,20.3-57.9,25.8
	c-11.6,3-23.3,5.3-35.2,5.2c-18.8-0.2-36.4-4.4-50.8-17.3c-9.9-8.9-15.9-20.2-18.8-33.2c-3.4-15.1-2.6-30.2,0.3-45.2
	c4.3-21.6,12.4-41.7,22.7-61.1c2.2-4.1,4.4-8.1,6.7-12.1c1.1-1.9,0.4-3.3-0.5-5c-5.6-10.6-11.6-21-16.7-31.9
	C8.1,123.4,3.5,106.9,1.1,89.9c-2.6-18.4-1-36.4,7-53.4C15.6,20.9,27.7,10.4,44,4.9C56.4,0.7,69-0.1,81.9,1
	c23.8,2.1,45.7,10.1,66.9,20.5c6.6,3.2,12.9,6.8,19.4,10.1c1,0.5,2.7,0.5,3.8,0c10.4-5.2,20.6-11.2,31.3-15.8
	c10.1-4.4,20.8-7.7,31.4-10.9c13.8-4.2,28.1-5.6,42.4-4.3c16.7,1.5,31.8,7,43.8,19.2c9.5,9.7,14.9,21.4,17.2,34.7
	C339.2,60.5,344.2,82.6,332.6,116.7z M276.2,173.8c-0.3-0.7-0.5-1.3-0.8-1.8c-2.4-3.9-4.7-7.9-7.2-11.8
	c-12.1-18.1-25.8-34.9-41.3-50.3c-16.6-16.5-34.5-31.3-53.4-45c-1.5-1.1-2.8-1.2-4.4-0.1c-4.3,2.9-8.7,5.7-13,8.6
	c-15.9,10.7-30.9,22.6-44.4,36.1c-18.4,18.5-32.9,40-46.6,62.1c-1.6,2.6-1.3,4.3,0.2,6.7c12.9,21.5,28.7,40.7,46.6,58.2
	c16.5,16.1,34.4,30.6,53.4,43.7c6,4.1,4,4,9.7,0.1c18-12.6,35-26.4,50.6-41.8c19-18.7,35.5-39.3,49.2-62.2
	C275.4,175.5,275.8,174.6,276.2,173.8z M287.5,146.6c1.4-2.2,2.4-3.5,3-4.9c2.4-4.9,4.9-9.9,6.9-14.9c6.1-15.6,8.5-31.6,4.2-48.1
	c-3.7-14.5-12.2-25.5-25.1-32.9c-15.9-9.1-33.2-10.1-50.6-6.6c-9.2,1.8-18.1,5.6-27,8.5c-1.4,0.5-2.7,1.5-4.7,2.6
	C229.7,78.5,261.4,109.3,287.5,146.6z M142.8,297.3c0.1-0.4,0.2-0.8,0.4-1.1c-35-27.9-66.7-58.9-92.9-96.1c-0.6,1-0.8,1.4-1,1.7
	c-0.4,0.6-0.7,1.2-1.1,1.8c-5.1,9.2-9,18.9-11.6,29.1c-3,11.9-3.6,23.7-0.3,35.5c7.3,26,27.9,39.1,52.6,41c15.2,1.2,29.8-2,44-7.4
	C136.2,300.4,139.5,298.8,142.8,297.3z M194.4,296.4c1.6,1,2.4,1.6,3.2,2c14.7,6.7,30,10.9,46.3,10.7c12.8-0.1,25-2.8,35.8-10.1
	c11.5-7.8,18.8-18.4,22.2-31.9c2.2-8.7,2.1-17.5,1.1-26.2c-1.4-12-5.8-23.2-11.4-33.9c-1.1-2.1-2.4-4.2-4-7
	C261.4,237.3,229.8,268.3,194.4,296.4z M143.6,50.3c-2.3-1.2-3.6-2.1-5-2.7c-10-4.5-20.4-7.4-31.2-9.1c-13.5-2.1-26.7-1.1-39.5,4.1
	c-16.8,6.9-27.3,19.5-32.1,36.8c-3.1,11.1-2.3,22.2,0.2,33.2c2.5,11.1,6.8,21.5,12.6,31.3c0.4,0.7,1,1.3,1.9,2.4
	C76.6,109.4,108.2,78.4,143.6,50.3z"/>
<g>
	<g id="XMLID_3_">
		<g id="XMLID_4_">
			<path class="st1" d="M205.4,144.8L205.4,144.8l0.1-5.3l11.9-0.1v25.9h-2.9h-9.8c0-5.1-1.3-7.6-1.3-7.6c-2.1-4.1-5-6.6-8.1-6.6
				c-6.6,0-12,11.2-12,25s5.4,25,12,25c4,0,7.8-4,9.8-10.3c0.2-0.6,0.1-3.5,0.1-3.5l-5.7-0.1v-13.3h16l5.9-0.1l0.1,13.1h-3.2
				l-0.3,25.7h-12.1l0-5.1l-0.2,0c-3.8,4.5-8.5,7.1-13.6,7.1c-12.9,0-23.4-17.1-23.4-38.3s10.5-38.3,23.4-38.3
				C197.1,138,201.6,140.5,205.4,144.8"/>
		</g>
	</g>
	<path class="st1" d="M148.7,139.2L148.7,139.2l-28.4,0.6l0.3,13l4.4,0l-0.3,46.8h-4.3l0.3,12.7h24.6v-12.9l-6.1-0.1l0.1-12.9
		l9.1,0.1l0.7,0c8.6-0.1,15.6-7.1,15.7-15.8l0.2-15.5C165,146.4,157.7,139,148.7,139.2z M150.1,167.1c0,3.4-2.8,6.2-6.2,6.2h-5
		v-20.5h5c3.4,0,6.2,2.8,6.2,6.2V167.1z"/>
</g>
</svg>
